<?xml version="1.0" encoding="utf-8"?><svg viewBox="0 0 215 215" xmlns="http://www.w3.org/2000/svg" xmlns:xlink="http://www.w3.org/1999/xlink"><style>:root>svg{display:none}:root>svg:target{display:block}</style><svg viewBox="0 0 215 215" id="Facebook" xmlns="http://www.w3.org/2000/svg"><path d="M1108 103.2c0-48.65 0-73 15.11-88.09S1162.55 0 1211.2 0h8.6c48.65 0 73 0 88.09 15.11S1323 54.55 1323 103.2v8.6c0 48.65 0 73-15.11 88.09S1268.45 215 1219.8 215h-8.6c-48.65 0-73 0-88.09-15.11S1108 160.45 1108 111.8Z" transform="translate(-1108)" style="fill:#fff"/><path data-name="Facebook" d="M116.55 117.27H136L139.66 93h-23.11V77.3c0-6.64 3.23-13.1 13.58-13.1h10.51V43.56A127.3 127.3 0 0 0 122 41.92c-19 0-31.48 11.61-31.48 32.63V93H69.35v24.24h21.17v58.6h26Z"/></svg><svg viewBox="0 0 215 215" id="TikTok" xmlns="http://www.w3.org/2000/svg"><path d="M277 380.2c0-48.65 0-73 15.11-88.09S331.55 277 380.2 277h8.6c48.65 0 73 0 88.09 15.11S492 331.55 492 380.2v8.6c0 48.65 0 73-15.11 88.09S437.45 492 388.8 492h-8.6c-48.65 0-73 0-88.09-15.11S277 437.45 277 388.8Z" transform="translate(-277 -277)" style="fill:#fff"/><path data-name="TikTok" d="M145.85 70.29a29.93 29.93 0 0 1-13.17-19.65 29.09 29.09 0 0 1-.45-5.44h-21.62v86.43a18.16 18.16 0 0 1-18.11 17.48 18.61 18.61 0 0 1-8.45-2 18.15 18.15 0 0 1 8.36-34.2 18.63 18.63 0 0 1 5.35.84v-22.1a36.2 36.2 0 0 0-5.3-.44A39.69 39.69 0 0 0 54.52 119c-5 16 .07 33.57 13.35 43.65.66.55 1.18.87 1.8 1.31a39.29 39.29 0 0 0 22.78 6.73A39.77 39.77 0 0 0 132.22 131V87a51.38 51.38 0 0 0 30 9.62v-21.4a29.66 29.66 0 0 1-16.37-4.93Z"/></svg><svg viewBox="0 0 215 215" id="VK" xmlns="http://www.w3.org/2000/svg"><path d="M0 103.2c0-48.65 0-73 15.11-88.09S54.55 0 103.2 0h8.6c48.65 0 73 0 88.09 15.11S215 54.55 215 103.2v8.6c0 48.65 0 73-15.11 88.09S160.45 215 111.8 215h-8.6c-48.65 0-73 0-88.09-15.11S0 160.45 0 111.8Z" style="fill:#fff"/><path data-name="VK" d="M112 151c-45.86 0-72-31.44-73.1-83.75h23c.75 38.4 17.69 54.66 31.1 58v-58h21.63v33.12c13.24-1.43 27.16-16.52 31.85-33.12h21.63c-3.6 20.46-18.69 35.55-29.42 41.75 10.73 5 27.91 18.19 34.45 42h-23.85c-5.11-16-17.85-28.3-34.7-30v30Z"/></svg><svg viewBox="0 0 215 215" id="YouTube" xmlns="http://www.w3.org/2000/svg"><path d="M1385 380.2c0-48.65 0-73 15.11-88.09S1439.55 277 1488.2 277h8.6c48.65 0 73 0 88.09 15.11S1600 331.55 1600 380.2v8.6c0 48.65 0 73-15.11 88.09S1545.45 492 1496.8 492h-8.6c-48.65 0-73 0-88.09-15.11S1385 437.45 1385 388.8Z" transform="translate(-1385 -277)" style="fill:#fff"/><path data-name="YouTube" d="M165.87 77.5A15.34 15.34 0 0 0 155 66.66c-9.56-2.56-47.89-2.56-47.89-2.56s-38.33 0-47.89 2.56A15.36 15.36 0 0 0 48.38 77.5c-2.56 9.56-2.56 29.5-2.56 29.5s0 19.94 2.56 29.5a15.36 15.36 0 0 0 10.84 10.84c9.56 2.56 47.89 2.56 47.89 2.56s38.33 0 47.89-2.56a15.34 15.34 0 0 0 10.83-10.84c2.56-9.56 2.56-29.5 2.56-29.5s.04-19.94-2.52-29.5Zm-71 47.89V88.61L126.73 107Z"/></svg></svg>